<?xml version="1.0" encoding="UTF-8"?>
<svg version="1.1" xmlns="http://www.w3.org/2000/svg" width="512" height="325">
<path d="M0 0 C0.81341312 0.00234117 1.62682624 0.00468233 2.46488824 0.00709444 C3.3248251 0.005641 4.18476196 0.00418756 5.07075751 0.00269008 C7.99005223 -0.00099728 10.90929562 0.00252907 13.82859007 0.00595194 C15.9275514 0.0048012 18.02651253 0.00321399 20.12547323 0.0012247 C25.92275913 -0.00297511 31.72002872 -0.00087501 37.5173147 0.00221092 C43.75802195 0.00446218 49.99872628 0.00098677 56.23943296 -0.00176901 C67.76851808 -0.00597057 79.29759586 -0.00558968 90.82668094 -0.00285754 C101.47639688 -0.00034606 112.1261109 0.00031663 122.77582708 -0.00088018 C123.4811186 -0.00095657 124.18641012 -0.00103295 124.91307412 -0.00111165 C127.7757965 -0.00142297 130.63851889 -0.00174137 133.50124128 -0.00207142 C160.37951387 -0.00513337 187.25778312 -0.00235233 214.13605519 0.00302548 C238.03536406 0.0077709 261.9346676 0.00734723 285.83397642 0.00256449 C312.66028663 -0.00278601 339.48659389 -0.00491574 366.31290457 -0.00182325 C369.1708457 -0.00150251 372.02878683 -0.00118967 374.88672796 -0.00088018 C375.59047021 -0.0008011 376.29421246 -0.00072203 377.01928023 -0.00064055 C387.66370957 0.00049868 398.30813677 -0.00083664 408.95256582 -0.00335974 C421.05208638 -0.00621337 433.15159926 -0.00541954 445.25111958 -0.00007899 C451.43046602 0.00255813 457.60980163 0.00356291 463.789148 0.00027186 C469.43732786 -0.00269091 475.08548674 -0.00109861 480.73366467 0.00424941 C482.78547354 0.00537368 484.83728416 0.00478219 486.88909193 0.00237362 C489.66130089 -0.00063292 492.43343641 0.00241685 495.20564142 0.00709444 C496.42224935 0.00358269 496.42224935 0.00358269 497.66343522 0 C503.16988469 0.01878523 503.16988469 0.01878523 505.3981854 1.13293558 C505.3981854 106.07293558 505.3981854 211.01293558 505.3981854 319.13293558 C502.20132081 320.73136788 498.73505975 320.26893495 495.2240521 320.25877672 C494.36464977 320.26023017 493.50524745 320.26168361 492.61980262 320.26318109 C489.7083478 320.2668624 486.79694463 320.26334485 483.88549009 320.25991923 C481.7897905 320.2610702 479.69409112 320.26265757 477.59839216 320.26464647 C471.81476716 320.268843 466.03115855 320.26674764 460.24753347 320.26366025 C454.01979552 320.26140769 447.79206048 320.26488505 441.5643231 320.26764017 C430.06102184 320.27184039 418.55772793 320.27146153 407.0544267 320.26872871 C396.42890007 320.26621669 385.80337536 320.26555479 375.17784849 320.26675135 C374.12209384 320.26686593 374.12209384 320.26686593 373.04501081 320.26698282 C370.18816668 320.26729414 367.33132256 320.26761254 364.47447844 320.26794258 C337.65548744 320.27100405 310.83649979 320.26822422 284.01750931 320.26284569 C260.1717433 320.25809981 236.32598262 320.25852443 212.48021665 320.26330668 C185.71139792 320.26865715 158.94258214 320.27078696 132.17376295 320.26769441 C129.32201607 320.26737368 126.47026919 320.26706084 123.61852232 320.26675135 C122.91630972 320.26667227 122.21409712 320.26659319 121.49060535 320.26651172 C110.86975069 320.26537253 100.24889817 320.26670772 89.6280438 320.2692309 C77.55599583 320.27208448 65.48395555 320.27129079 53.41190782 320.26595016 C47.24673128 320.26331305 41.08156561 320.26230824 34.91638914 320.26559931 C29.28120213 320.26856208 23.64603614 320.26696978 18.01085106 320.26162176 C15.96378267 320.26049749 13.91671254 320.26108897 11.86964527 320.26349755 C9.10384389 320.26650411 6.33811612 320.2634543 3.5723187 320.25877672 C2.76313694 320.26111789 1.95395518 320.26345906 1.12025276 320.26587117 C-4.37351386 320.24708595 -4.37351386 320.24708595 -6.6018146 319.13293558 C-6.62467934 278.63863815 -6.64231199 238.14434155 -6.65287993 197.65003896 C-6.65413071 192.87456243 -6.65542502 188.09908592 -6.65674624 183.32360941 C-6.65700855 182.37285622 -6.65727086 181.42210304 -6.65754112 180.44253915 C-6.66189816 165.02701367 -6.6697859 149.61149191 -6.67896739 134.19596864 C-6.68830298 118.3904806 -6.69387 102.58499451 -6.69590309 86.77950382 C-6.69727852 77.0184986 -6.70163017 67.25750386 -6.70973106 57.49650186 C-6.71499735 50.81248118 -6.71661916 44.12846596 -6.71531598 37.44444335 C-6.71467241 33.58212905 -6.71569218 29.71983314 -6.72102007 25.85752207 C-6.72674073 21.68023577 -6.72481585 17.50298915 -6.72206911 13.32569987 C-6.72498196 12.09129115 -6.7278948 10.85688243 -6.73089591 9.58506739 C-6.72890486 8.47535655 -6.72691381 7.36564571 -6.72486243 6.22230726 C-6.72543201 4.77386407 -6.72543201 4.77386407 -6.72601309 3.29615939 C-6.47575517 -1.06270096 -3.71742529 0.01272539 0 0 Z M10.3981854 9.13293558 C14.09901102 12.8337612 17.7117399 16.04784697 21.8356854 19.19543558 C26.81123774 23.04424909 31.65100008 27.00602592 36.3981854 31.13293558 C40.96800271 35.10144434 45.61322029 38.92665817 50.3981854 42.63293558 C55.88421478 46.88283916 61.17673684 51.3150943 66.42284361 55.85681254 C70.53144422 59.40855072 74.71601769 62.84180948 78.9763104 66.21106058 C83.49480281 69.79670295 87.93887248 73.47417253 92.3981854 77.13293558 C94.23128702 78.63321875 96.06461968 80.13321966 97.8981854 81.63293558 C99.27103696 82.75635355 99.27103696 82.75635355 100.6716229 83.90246683 C102.42636325 85.33793494 104.18153695 86.77287354 105.9372479 88.20715433 C112.34657391 93.44498722 118.73761736 98.70470777 125.12572446 103.9683848 C130.87273602 108.70280321 136.6317432 113.42219587 142.3981854 118.13293558 C144.23163576 119.63279254 146.06496711 121.13279498 147.8981854 122.63293558 C148.8056854 123.37543558 149.7131854 124.11793558 150.6481854 124.88293558 C153.3981854 127.13293558 156.1481854 129.38293558 158.8981854 131.63293558 C159.81213071 132.38059183 160.72607603 133.12824808 161.66771665 133.89856058 C163.43641335 135.3459061 165.20467083 136.79378859 166.97240415 138.24231058 C168.75718765 139.70428571 170.54509378 141.16245489 172.3356854 142.61731058 C174.60626519 144.48242969 176.85073554 146.36673991 179.0856854 148.27356058 C201.45790257 167.18344379 227.62819841 178.50100273 257.3981854 176.13293558 C280.16117338 173.93793317 300.41372153 164.93565119 317.4684979 149.74231058 C319.97374202 147.51097316 322.51418687 145.39570715 325.1481854 143.32043558 C329.75652657 139.66684046 334.29932154 135.93766381 338.8356854 132.19543558 C339.57480161 131.58570902 340.31391782 130.97598246 341.0754315 130.34777933 C342.52304678 129.15347265 343.9706386 127.95913754 345.41820493 126.76477152 C349.73413719 123.20771959 354.06689925 119.6712632 358.3981854 116.13293558 C360.23163576 114.63307863 362.06496711 113.13307618 363.8981854 111.63293558 C367.56485207 108.63293558 371.23151874 105.63293558 374.8981854 102.63293558 C376.27103696 101.50951761 376.27103696 101.50951761 377.6716229 100.36340433 C379.42636325 98.92793623 381.18153695 97.49299763 382.9372479 96.05871683 C388.6015933 91.42969741 394.25259094 86.78479652 399.8981854 82.13293558 C406.38723542 76.78608354 412.88663373 71.45237241 419.3981854 66.13293558 C421.23163576 64.63307863 423.06496711 63.13307618 424.8981854 61.63293558 C428.56485207 58.63293558 432.23151874 55.63293558 435.8981854 52.63293558 C437.27103696 51.50951761 437.27103696 51.50951761 438.6716229 50.36340433 C440.42636325 48.92793623 442.18153695 47.49299763 443.9372479 46.05871683 C449.60159433 41.42969656 455.25242996 36.78460231 460.8981854 32.13293558 C462.36560937 30.92457316 463.83305685 29.7162393 465.30052915 28.50793558 C467.75257295 26.48893751 470.20320489 24.4682609 472.65209165 22.44543558 C477.35740294 18.57124326 482.09105053 14.79339361 487.03490415 11.22668558 C487.70972837 10.68527933 487.70972837 10.68527933 488.3981854 10.13293558 C488.3981854 9.80293558 488.3981854 9.47293558 488.3981854 9.13293558 C330.6581854 9.13293558 172.9181854 9.13293558 10.3981854 9.13293558 Z M2.3981854 15.13293558 C2.3981854 110.83293558 2.3981854 206.53293558 2.3981854 305.13293558 C6.69316731 302.26961431 10.53894765 299.42805081 14.3981854 296.07043558 C18.95525209 292.15600682 23.5864481 288.37402786 28.3356854 284.69543558 C33.84050288 280.42329195 39.15495856 275.96956648 44.42259946 271.40930277 C48.53124896 267.85744372 52.71592732 264.42413315 56.9763104 261.05481058 C61.49480984 257.46916264 65.93862827 253.79141244 70.3981854 250.13293558 C72.10640898 248.73696793 73.81474397 247.3411366 75.5231854 245.94543558 C80.32356135 242.01848048 85.11175015 238.0768659 89.8981854 234.13293558 C96.38723542 228.78608354 102.88663373 223.45237241 109.3981854 218.13293558 C111.23163576 216.63307863 113.06496711 215.13307618 114.8981854 213.63293558 C122.23151874 207.63293558 129.56485207 201.63293558 136.8981854 195.63293558 C137.81341978 194.88399027 138.72865415 194.13504496 139.6716229 193.36340433 C141.42636325 191.92793623 143.18153695 190.49299763 144.9372479 189.05871683 C149.15100791 185.61514558 153.36007593 182.16651466 157.5544354 178.69934183 C172.34699403 166.47657349 172.34699403 166.47657349 179.3981854 161.13293558 C178.19755448 157.53104282 177.00003903 156.78987701 174.0231854 154.50793558 C173.11697446 153.8028184 172.21076353 153.09770121 171.27709165 152.37121683 C170.32705259 151.63258402 169.37701353 150.89395121 168.3981854 150.13293558 C166.58082119 148.65974938 164.76831372 147.18055179 162.9606854 145.69543558 C161.57429868 144.55848246 161.57429868 144.55848246 160.15990415 143.39856058 C159.24853696 142.65090433 158.33716978 141.90324808 157.3981854 141.13293558 C155.68996183 139.73696793 153.98162684 138.3411366 152.2731854 136.94543558 C146.72813658 132.40929966 141.19958967 127.85322902 135.67064634 123.29748636 C129.92363478 118.56306795 124.16462761 113.84367529 118.3981854 109.13293558 C116.56473504 107.63307863 114.73140369 106.13307618 112.8981854 104.63293558 C111.9906854 103.89043558 111.0831854 103.14793558 110.1481854 102.38293558 C101.8981854 95.63293558 101.8981854 95.63293558 99.1247479 93.36340433 C97.37000756 91.92793623 95.61483386 90.49299763 93.8591229 89.05871683 C87.4497969 83.82088395 81.05875344 78.56116339 74.67064634 73.29748636 C68.92363478 68.56306795 63.16462761 63.84367529 57.3981854 59.13293558 C55.56473504 57.63307863 53.73140369 56.13307618 51.8981854 54.63293558 C50.5369354 53.51918558 50.5369354 53.51918558 49.1481854 52.38293558 C42.73151874 47.13293558 36.31485207 41.88293558 29.8981854 36.63293558 C28.99197446 35.89172465 28.08576353 35.15051371 27.15209165 34.38684183 C25.30481018 32.87495331 23.45846665 31.36191809 21.61302915 29.84777933 C17.01127957 26.07447412 12.40207138 22.31041743 7.7731854 18.57043558 C6.95591978 17.90914652 6.13865415 17.24785746 5.2966229 16.56652933 C3.66166771 15.03249825 3.66166771 15.03249825 2.3981854 15.13293558 Z M489.4606854 20.13293558 C484.65830463 24.23554463 479.80419079 28.25030449 474.85521665 32.17590433 C470.33033659 35.7799821 465.87025437 39.46370648 461.3981854 43.13293558 C459.56508379 44.63321875 457.73175113 46.13321966 455.8981854 47.63293558 C454.9906854 48.37543558 454.0831854 49.11793558 453.1481854 49.88293558 C450.3981854 52.13293558 447.6481854 54.38293558 444.8981854 56.63293558 C443.98295103 57.3818809 443.06771665 58.13082621 442.1247479 58.90246683 C440.37000756 60.33793494 438.61483386 61.77287354 436.8591229 63.20715433 C431.1947775 67.83617376 425.54377987 72.48107465 419.8981854 77.13293558 C413.40913539 82.47978762 406.90973707 87.81349876 400.3981854 93.13293558 C398.56473504 94.63279254 396.73140369 96.13279498 394.8981854 97.63293558 C387.56485207 103.63293558 380.23151874 109.63293558 372.8981854 115.63293558 C371.98295103 116.3818809 371.06771665 117.13082621 370.1247479 117.90246683 C368.37000756 119.33793494 366.61483386 120.77287354 364.8591229 122.20715433 C359.19477681 126.83617433 353.54388718 131.4812041 347.8981854 136.13293558 C345.72250978 137.92489333 343.54672884 139.71672302 341.37084165 141.50842386 C340.14930021 142.51438139 338.92791492 143.52052861 337.70677915 144.52697855 C331.6775887 149.49412171 325.59413212 154.37506045 319.3981854 159.13293558 C320.59881632 162.73482835 321.79633177 163.47599416 324.7731854 165.75793558 C325.67939634 166.46305277 326.58560728 167.16816996 327.51927915 167.89465433 C328.46931821 168.63328715 329.41935728 169.37191996 330.3981854 170.13293558 C332.21554962 171.60612178 334.02805709 173.08531937 335.8356854 174.57043558 C336.75994321 175.32840433 337.68420103 176.08637308 338.63646665 176.86731058 C340.00351743 177.98879496 340.00351743 177.98879496 341.3981854 179.13293558 C343.10640898 180.52890324 344.81474397 181.92473456 346.5231854 183.32043558 C352.06823422 187.85657151 357.59678114 192.41264215 363.12572446 196.9683848 C368.87273602 201.70280321 374.6317432 206.42219587 380.3981854 211.13293558 C382.23163576 212.63279254 384.06496711 214.13279498 385.8981854 215.63293558 C387.2594354 216.74668558 387.2594354 216.74668558 388.6481854 217.88293558 C407.8981854 233.63293558 407.8981854 233.63293558 410.6716229 235.90246683 C412.42636325 237.33793494 414.18153695 238.77287354 415.9372479 240.20715433 C422.34657391 245.44498722 428.73761736 250.70470777 435.12572446 255.9683848 C440.87273602 260.70280321 446.6317432 265.42219587 452.3981854 270.13293558 C454.23163576 271.63279254 456.06496711 273.13279498 457.8981854 274.63293558 C459.2594354 275.74668558 459.2594354 275.74668558 460.6481854 276.88293558 C464.7731854 280.25793558 464.7731854 280.25793558 468.8981854 283.63293558 C469.80439634 284.37414652 470.71060728 285.11535746 471.64427915 285.87902933 C473.49156063 287.39091786 475.33790415 288.90395307 477.18334165 290.41809183 C481.78509124 294.19139705 486.39429942 297.95545374 491.0231854 301.69543558 C491.84045103 302.35672465 492.65771665 303.01801371 493.4997479 303.69934183 C495.1347031 305.23337292 495.1347031 305.23337292 496.3981854 305.13293558 C496.3981854 209.43293558 496.3981854 113.73293558 496.3981854 15.13293558 C494.01453895 15.13293558 491.27951725 18.56582392 489.4606854 20.13293558 Z M186.3981854 166.13293558 C185.50357603 166.90637308 184.60896665 167.67981058 183.6872479 168.47668558 C177.47977305 173.82926455 171.25015127 179.12582532 164.8200604 184.21106058 C160.30156799 187.79670295 155.85749833 191.47417253 151.3981854 195.13293558 C149.56508379 196.63321875 147.73175113 198.13321966 145.8981854 199.63293558 C144.98295103 200.3818809 144.06771665 201.13082621 143.1247479 201.90246683 C141.37000756 203.33793494 139.61483386 204.77287354 137.8591229 206.20715433 C132.1947775 210.83617376 126.54377987 215.48107465 120.8981854 220.13293558 C114.40913539 225.47978762 107.90973707 230.81349876 101.3981854 236.13293558 C99.56473504 237.63279254 97.73140369 239.13279498 95.8981854 240.63293558 C88.56485207 246.63293558 81.23151874 252.63293558 73.8981854 258.63293558 C72.98295103 259.3818809 72.06771665 260.13082621 71.1247479 260.90246683 C69.37000756 262.33793494 67.61483386 263.77287354 65.8591229 265.20715433 C60.1947775 269.83617376 54.54377987 274.48107465 48.8981854 279.13293558 C43.25683389 283.78130041 37.61136691 288.42427982 31.94896665 293.04699808 C30.15142376 294.51696425 28.35748051 295.99133768 26.56615415 297.46887308 C21.71987514 301.45992638 16.85381263 305.36534881 11.76146665 309.03918558 C11.08664243 309.58059183 11.08664243 309.58059183 10.3981854 310.13293558 C10.3981854 310.46293558 10.3981854 310.79293558 10.3981854 311.13293558 C168.1381854 311.13293558 325.8781854 311.13293558 488.3981854 311.13293558 C484.69735978 307.43210996 481.0846309 304.2180242 476.9606854 301.07043558 C471.98513306 297.22162208 467.14537072 293.25984524 462.3981854 289.13293558 C457.8283681 285.16442683 453.18315051 281.339213 448.3981854 277.63293558 C442.91215602 273.383032 437.61963397 268.95077687 432.3735272 264.40905863 C428.26492658 260.85732044 424.08035312 257.42406168 419.8200604 254.05481058 C415.30156096 250.46916264 410.85774253 246.79141244 406.3981854 243.13293558 C404.68996183 241.73696793 402.98162684 240.3411366 401.2731854 238.94543558 C395.72813658 234.40929966 390.19958967 229.85322902 384.67064634 225.29748636 C378.92363478 220.56306795 373.16462761 215.84367529 367.3981854 211.13293558 C365.56473504 209.63307863 363.73140369 208.13307618 361.8981854 206.63293558 C360.9906854 205.89043558 360.0831854 205.14793558 359.1481854 204.38293558 C343.56485207 191.63293558 327.98151874 178.88293558 312.3981854 166.13293558 C308.84612197 167.45903926 305.53465122 169.0790078 302.18431821 170.84924418 C275.65231131 184.7453992 246.02975284 188.72405179 217.1013104 179.84387308 C208.97348465 177.20650419 201.54708694 173.91287378 194.1325604 169.64856058 C191.60150064 168.24563032 189.10677177 167.14124146 186.3981854 166.13293558 Z " fill="#ffffff" transform="translate(6.6018145978450775,0.8670644164085388)"/>
</svg>
